<?xml version="1.0" encoding="UTF-8"?>
<!DOCTYPE svg PUBLIC "-//W3C//DTD SVG 1.1//EN" "http://www.w3.org/Graphics/SVG/1.1/DTD/svg11.dtd">
<!-- Creator: CorelDRAW X7 -->
<svg xmlns="http://www.w3.org/2000/svg" xml:space="preserve" width="70px" height="99px" version="1.1" style="shape-rendering:geometricPrecision; text-rendering:geometricPrecision; image-rendering:optimizeQuality; fill-rule:evenodd; clip-rule:evenodd"
viewBox="0 0 70 99"
 xmlns:xlink="http://www.w3.org/1999/xlink"
 xmlns:dc="http://purl.org/dc/elements/1.1/"
 xmlns:cc="http://creativecommons.org/ns#"
 xmlns:rdf="http://www.w3.org/1999/02/22-rdf-syntax-ns#"
 xmlns:svg="http://www.w3.org/2000/svg"
 xmlns:sodipodi="http://sodipodi.sourceforge.net/DTD/sodipodi-0.dtd"
 xmlns:inkscape="http://www.inkscape.org/namespaces/inkscape"
 inkscape:version="0.91 r13725"
 sodipodi:docname="13.svg">
 <defs>
  <style type="text/css">
   <![CDATA[
    .str0 {stroke:#040523;stroke-width:0.0254}
    .fil2 {fill:#040523}
    .fil0 {fill:#F1F4D8}
    .fil1 {fill:#F1F4D8;fill-rule:nonzero}
   ]]>
  </style>
 </defs>
 <g id="Слой_x0020_1">
  <metadata id="CorelCorpID_0Corel-Layer"/>
  <g id="_231667720">
   <g>
    <circle id="XMLID_4231_" class="fil0 str0" cx="16" cy="63" r="7"/>
    <circle id="XMLID_4230_" class="fil0 str0" cx="54" cy="63" r="7"/>
    <circle id="XMLID_4216_" class="fil0 str0" cx="35" cy="32" r="7"/>
    <path class="fil0 str0" d="M45 72c0,-1 -1,-1 -1,-1 -3,1 -6,2 -9,2 -5,0 -10,-2 -13,-4 1,-2 2,-4 2,-6 0,-4 -4,-7 -8,-7 -4,0 -8,3 -8,7 0,5 4,8 8,8 2,0 3,0 4,-1 4,3 10,5 15,5 3,0 7,-1 10,-2 0,0 1,-1 0,-1zm-35 -9c0,-3 3,-5 6,-5 3,0 6,2 6,5 0,3 -3,6 -6,6 -3,0 -6,-3 -6,-6z"/>
    <path class="fil0 str0" d="M12 52c0,0 1,1 1,1 0,0 0,0 0,0 1,0 1,0 1,-1 0,-7 4,-13 10,-17 1,0 2,-1 3,-1 1,3 4,5 8,5 4,0 8,-3 8,-7 0,-5 -4,-8 -8,-8 -5,0 -8,3 -8,8 0,0 0,0 0,0 -1,1 -3,1 -4,2 -6,4 -11,10 -11,18zm23 -26c3,0 6,2 6,6 0,3 -3,5 -6,5 -4,0 -6,-2 -6,-5 0,-4 2,-6 6,-6z"/>
    <path class="fil0 str0" d="M54 56c-4,0 -8,3 -8,7 0,5 4,8 8,8 4,0 8,-3 8,-8 0,-3 -2,-5 -4,-6 0,-2 0,-3 0,-4 0,-8 -4,-15 -11,-19 0,0 -1,0 -1,1 0,0 0,1 0,1 6,4 10,10 10,17 0,1 0,2 0,3 -1,0 -1,0 -2,0zm6 7c0,3 -3,6 -6,6 -3,0 -6,-3 -6,-6 0,-3 3,-5 6,-5 3,0 6,2 6,5z"/>
   </g>
  </g>
  <g id="_231672088">
  </g>
  <g id="_231661216">
  </g>
  <g id="_231675808">
  </g>
  <g id="_231670720">
  </g>
  <g id="_231674896">
  </g>
  <g id="_231675544">
  </g>
  <g id="_231662752">
  </g>
  <g id="_231665416">
  </g>
  <g id="_231676096">
  </g>
  <g id="_231676648">
  </g>
  <g id="_231675568">
  </g>
  <g id="_231660160">
  </g>
  <g id="_231660520">
  </g>
  <g id="_231666808">
  </g>
  <g id="_231672544">
  </g>
  <path class="fil0 str0" d="M43 48c1,0 1,0 1,0 0,0 0,0 0,0l2 -2c0,0 0,0 0,0l0 -1c0,0 0,0 0,0l-5 -5c-1,0 -1,0 -1,0 0,0 -1,0 -1,0l-1 1c0,0 0,0 0,1 0,0 0,0 0,0l-3 3 -3 -3c1,0 1,0 1,0 0,-1 0,-1 -1,-1l-1 -1c0,0 0,0 -1,0 0,0 0,0 0,0l-6 5c0,0 0,0 0,1 0,0 0,0 0,0l2 2c0,0 0,0 0,0 0,0 1,0 1,0l4 4 -5 5c0,0 0,0 -1,0l-1 2c0,0 0,0 0,0l2 2c0,0 0,0 0,0 0,0 0,0 0,0l2 -2c0,0 0,0 0,0l5 -5 2 -1 2 1 5 5c0,0 0,0 1,0l1 2c0,0 0,0 0,0 0,0 0,0 0,0l2 -2c0,0 0,0 0,0l0 0c0,0 0,0 0,0l-1 -2c0,0 -1,0 -1,0l-5 -5 4 -4 0 0zm-3 -8c0,0 0,0 0,0 0,0 0,0 0,0l5 5c0,1 0,1 0,1l-1 1 0 0c0,0 0,0 0,0 0,0 0,0 0,0l-5 -5c0,0 0,0 -1,0 0,0 0,0 0,0l0 0 0 0 2 -2zm-2 10l0 0 0 -3c0,0 0,0 -1,0l0 -1 2 -2 3 2 -4 4zm-2 -3l1 0c0,0 0,1 0,1l0 1 -1 -2 0 0zm-1 -2l-1 1 -3 -3 1 0 3 2zm-3 2l0 3 0 0 -4 -4 3 -2 3 2 -1 1c0,0 0,0 -1,0zm-7 -1c0,0 0,0 0,-1l5 -5c0,0 0,0 0,0 0,0 1,0 1,0l1 2 0 0c0,0 0,0 0,0 0,0 0,0 0,0l-6 5c0,0 0,0 0,0 0,0 0,0 0,0l0 0 -1 -1zm3 1l4 3c0,0 0,1 0,1l0 0 -5 -4 1 0zm-2 13l-1 -1 1 -1 1 1 -1 1zm12 -7l5 5 0 0 0 0 -5 -5c0,0 0,0 0,0 0,0 0,0 -1,0 0,0 0,0 0,0 0,0 0,0 0,0l0 0 1 0c0,0 0,0 0,0l0 0zm7 6l-1 1 -1 -1 1 -1 1 1zm-7 -7c0,0 0,0 0,0l-5 1c0,0 0,0 0,0 0,0 0,0 0,0 0,0 0,0 0,0 0,0 0,0 0,0l-6 5 0 0 5 -5c0,0 0,0 0,0 0,0 0,0 0,0 0,-1 0,-1 0,-1 0,0 0,0 0,0l1 -4c0,0 0,-1 0,-1l5 -4 1 0 -4 4c0,0 0,0 0,0 0,0 0,0 0,0l3 3c0,1 0,1 0,1 0,0 0,0 0,-1l4 -3 1 0 -5 5z"/>
  <g id="_231666328">
   <sodipodi:namedview id="base" pagecolor="#ffffff" bordercolor="#666666" borderopacity="1.0" inkscape:pageopacity="0.0" inkscape:pageshadow="2" inkscape:zoom="22.627417" inkscape:cx="21.917651" inkscape:cy="13.098258" inkscape:document-units="px" inkscape:current-layer="layer1" showgrid="true" units="px" inkscape:snap-bbox="true" inkscape:bbox-paths="true" inkscape:bbox-nodes="true" inkscape:snap-bbox-edge-midpoints="true" inkscape:snap-bbox-midpoints="true" inkscape:window-width="1920" inkscape:window-height="1027" inkscape:window-x="-8" inkscape:window-y="-8" inkscape:window-maximized="1">
    <inkscape:grid type="xygrid" id="grid3336"/>
   </sodipodi:namedview>
   <g id="layer1" inkscape:label="Layer 1" inkscape:groupmode="layer">
    <path id="path8300" class="fil1 str0" d="M33 58c-1,0 -1,0 -1,1 0,0 0,0 1,0 0,0 0,0 0,0 0,0 0,0 1,0 -1,1 -1,1 -1,2 0,0 0,0 0,1 0,0 0,0 0,0 0,0 0,0 0,0 -1,0 -1,0 -1,0 -1,0 -1,-1 -1,-1 0,0 0,0 0,0 0,0 0,0 0,0 -1,0 -1,0 -1,0 0,0 0,0 0,0 1,1 1,1 2,2 -1,0 -1,1 -1,1l-1 0c0,0 0,0 0,0 0,0 0,0 0,0 0,0 0,0 0,0 0,0 0,0 0,0l1 0c0,1 0,2 1,2 -1,1 -1,1 -2,2 0,0 0,0 0,0 0,0 0,0 1,0 0,0 0,0 0,0 0,0 0,0 0,0 0,0 1,-1 1,-1 1,0 2,1 3,1 1,0 2,-1 2,-1 1,0 1,1 2,1 0,0 0,0 0,0 0,0 0,0 0,0 0,0 0,0 0,0 0,0 0,0 0,0 0,-1 -1,-1 -2,-2 1,0 1,-1 1,-2l1 0c0,0 0,0 0,0 0,0 0,0 0,0 0,0 0,0 0,0 0,0 0,0 0,0l-1 0c0,0 0,-1 0,-1 0,-1 1,-1 1,-2 0,0 0,0 0,0 0,0 0,0 0,0 0,0 0,0 0,0 0,0 0,0 0,0 -1,0 -1,1 -2,1 0,0 0,0 0,0 0,0 0,0 0,0 0,0 0,0 0,0 0,-1 0,-1 0,-1 0,-1 -1,-1 -1,-2 0,0 0,0 1,0 0,0 0,0 0,0 0,0 0,0 0,0 0,-1 0,-1 0,-1 0,0 0,0 0,0 -1,0 -1,1 -2,1 0,0 0,0 0,0 -1,0 -1,0 -1,0 0,0 -1,-1 -1,-1 0,0 0,0 0,0 0,0 0,0 0,0l0 0zm2 2c1,0 1,0 1,1 0,0 0,0 0,0 0,0 -1,0 -1,0 -1,0 -1,0 -2,0 0,0 0,0 0,0 0,-1 1,-1 2,-1zm-1 0c0,0 0,0 0,0 0,1 0,1 0,1 0,0 0,0 0,-1 0,0 0,0 0,0l0 0zm2 0c0,0 0,0 0,0 0,1 0,1 0,1 0,0 0,0 0,-1 0,0 0,0 0,0zm-2 1l0 6c-1,0 -2,-1 -2,-3 0,-1 1,-3 2,-3zm1 0c1,0 3,2 3,3 0,2 -2,3 -3,3l0 -6zm-2 2c0,0 0,0 0,0 0,0 0,0 0,0 0,0 0,0 0,0l1 0c0,0 0,0 0,0 0,0 0,0 0,0 0,0 0,0 0,0 0,0 0,0 0,0l-1 0c0,0 0,0 0,0 0,0 0,0 0,0l0 0zm2 0c0,0 0,0 0,0 0,0 0,0 0,0 0,0 0,0 0,0l2 0c0,0 0,0 0,0 0,0 0,0 0,0 0,0 0,0 0,0 0,0 0,0 0,0l-2 0c0,0 0,0 0,0 0,0 0,0 0,0l0 0zm-2 1c0,0 0,0 0,0 0,0 0,0 0,0 0,0 0,0 0,0l1 0c0,0 0,0 0,0 0,0 0,0 0,0 0,0 0,0 0,0 0,0 0,0 0,0l-1 0c0,0 0,0 0,0 0,0 0,0 0,0l0 0zm2 0c0,0 0,0 0,0 0,0 0,0 0,0 0,0 0,0 0,0l1 0c0,0 0,0 0,0 0,0 0,0 0,0 0,0 0,0 0,0 0,0 0,0 0,0l-1 0c0,0 0,0 0,0 0,0 0,0 0,0l0 0zm-2 0c0,0 0,0 0,0 0,1 0,1 1,1 0,0 0,0 0,0l0 0c0,0 0,0 0,0 0,0 0,0 0,-1 0,0 0,0 0,0 0,0 0,0 0,0l0 0c0,0 0,0 0,0 0,0 -1,0 -1,0l0 0zm2 0c0,0 0,0 0,0 0,1 0,1 0,1 0,0 0,0 0,0l1 0c0,0 0,0 0,0 0,0 0,0 0,-1 0,0 0,0 0,0 0,0 0,0 0,0l-1 0c0,0 0,0 0,0 0,0 0,0 0,0l0 0z"/>
   </g>
  </g>
  <ellipse class="fil0" cx="16" cy="63" rx="6" ry="5"/>
  <circle class="fil2" cx="35" cy="32" r="6"/>
  <circle class="fil2" cx="54" cy="63" r="6"/>
  <circle class="fil2" cx="16" cy="63" r="6"/>
 </g>
</svg>
